<?xml version="1.0" encoding="UTF-8"?>
<svg width="112px" height="66px" viewBox="0 0 112 66" version="1.1" xmlns="http://www.w3.org/2000/svg" xmlns:xlink="http://www.w3.org/1999/xlink">
    <!-- Generator: Sketch 47.1 (45422) - http://www.bohemiancoding.com/sketch -->
    <title>paula-logo</title>
    <desc>Created with Sketch.</desc>
    <defs>
        <radialGradient cx="71.9793912%" cy="4.95738636%" fx="71.9793912%" fy="4.95738636%" r="110.776648%" gradientTransform="translate(0.719794,0.049574),scale(0.411102,1.000000),rotate(145.526450),translate(-0.719794,-0.049574)" id="radialGradient-1">
            <stop stop-color="#CC6175" offset="0%"></stop>
            <stop stop-color="#72446F" offset="50.3149463%"></stop>
            <stop stop-color="#2274A5" offset="100%"></stop>
        </radialGradient>
    </defs>
    <g id="Page-1" stroke="none" stroke-width="1" fill="none" fill-rule="evenodd">
        <g id="Desktop-HD" transform="translate(-184.000000, -20.000000)">
            <g id="paula-logo" transform="translate(183.000000, 20.000000)">
                <path d="M17.9158016,27.1730104 C17.9158016,25.4505873 17.4159988,24.0280717 16.4163783,22.905421 C15.4167578,21.7827702 14.0249993,21.2214533 12.2410611,21.2214533 C11.349092,21.2214533 10.5340291,21.3675495 9.79584775,21.6597463 C9.05766644,21.951943 8.41945675,22.3671638 7.88119954,22.905421 C7.34294233,23.4436782 6.9200323,24.0741986 6.61245675,24.7970012 C6.3048812,25.5198037 6.15109573,26.2964203 6.15109573,27.1268743 C6.15109573,27.9880858 6.3048812,28.7877702 6.61245675,29.5259516 C6.9200323,30.2641329 7.34294233,30.9023426 7.88119954,31.4405998 C8.41945675,31.978857 9.05766644,32.401767 9.79584775,32.7093426 C10.5340291,33.0169181 11.349092,33.1707036 12.2410611,33.1707036 C13.1330302,33.1707036 13.9327146,33.0169181 14.6401384,32.7093426 C15.3475622,32.401767 15.9396362,31.9711677 16.4163783,31.4175317 C16.8931204,30.8638957 17.2622055,30.225686 17.5236448,29.5028835 C17.785084,28.780081 17.9158016,28.0034644 17.9158016,27.1730104 Z M22.7139562,27.2652826 C22.7139562,28.7416452 22.4678994,30.1026466 21.9757785,31.3483276 C21.4836577,32.5940085 20.7839338,33.6781961 19.8765859,34.6009227 C18.9692381,35.5236494 17.8850505,36.2387518 16.6239908,36.7462514 C15.362931,37.2537511 13.9788618,37.5074971 12.4717416,37.5074971 C10.9646215,37.5074971 9.63437716,37.222994 8.48096886,36.6539792 C7.32756055,36.0849645 6.5355654,35.4775119 6.10495963,34.8316032 C6.10495963,34.9546334 6.1126489,35.0699725 6.12802768,35.177624 C6.14340646,35.2852754 6.15109573,35.4159931 6.15109573,35.5697809 L6.15109573,46.4117647 L1.72202999,46.4117647 L1.72202999,17.3921569 L5.96655133,17.3921569 C5.96655133,17.8227626 5.99730842,18.2533619 6.05882353,18.6839677 C6.12033864,19.1145735 6.15109573,19.5144157 6.15109573,19.8835063 C6.39715617,19.5759308 6.71241638,19.245292 7.09688581,18.8915802 C7.48135525,18.5378683 7.95040092,18.2149188 8.50403691,17.922722 C9.0576729,17.6305253 9.68050404,17.3844685 10.372549,17.1845444 C11.064594,16.9846203 11.8258321,16.8846597 12.656286,16.8846597 C14.1634062,16.8846597 15.5320969,17.1230272 16.7623991,17.5997693 C17.9927013,18.0765114 19.0461317,18.768546 19.922722,19.6758939 C20.7993123,20.5832418 21.4836577,21.6751186 21.9757785,22.9515571 C22.4678994,24.2279956 22.7139562,25.6658897 22.7139562,27.2652826 Z M27.3044982,27.4036909 C27.3044982,25.9888434 27.581312,24.6432205 28.134948,23.366782 C28.688584,22.0903435 29.4344435,20.9753988 30.372549,20.0219146 C31.3106544,19.0684304 32.4025312,18.3071924 33.6482122,17.7381776 C34.8938931,17.1691629 36.2087589,16.8846597 37.5928488,16.8846597 C38.5155755,16.8846597 39.346017,16.9999988 40.0841983,17.2306805 C40.8223796,17.4613622 41.4605893,17.7304867 41.9988465,18.0380623 C42.5371037,18.3456378 42.9600138,18.660898 43.2675893,18.9838524 C43.5751649,19.3068067 43.775086,19.5605527 43.8673586,19.745098 L44.0519031,17.3921569 L48.3425605,17.3921569 L48.3425605,37 L43.8673586,37 L43.8673586,35.7081892 C43.8673586,35.5544014 43.8750479,35.4083052 43.8904267,35.2698962 C43.9058055,35.1314872 43.9134947,35.0315266 43.9134947,34.9700115 C43.7904645,35.1237993 43.5751649,35.3467882 43.2675893,35.638985 C42.9600138,35.9311818 42.544793,36.2156849 42.0219146,36.4925029 C41.4990362,36.7693209 40.876205,37.0076884 40.1534025,37.2076125 C39.4305999,37.4075366 38.5924691,37.5074971 37.6389849,37.5074971 C36.1318648,37.5074971 34.7477956,37.2306833 33.4867358,36.6770473 C32.2256761,36.1234113 31.1337992,35.3852411 30.2110726,34.4625144 C29.288346,33.5397878 28.5732435,32.4709788 28.0657439,31.2560554 C27.5582442,30.0411319 27.3044982,28.7570233 27.3044982,27.4036909 Z M31.7797001,27.1268743 C31.7797001,27.9880858 31.9257962,28.7877702 32.217993,29.5259516 C32.5101898,30.2641329 32.9254105,30.9023426 33.4636678,31.4405998 C34.001925,31.978857 34.6401347,32.401767 35.378316,32.7093426 C36.1164973,33.0169181 36.9315603,33.1707036 37.8235293,33.1707036 C38.7154984,33.1707036 39.5305614,33.0169181 40.2687427,32.7093426 C41.006924,32.401767 41.6451337,31.9711677 42.1833909,31.4175317 C42.7216481,30.8638957 43.1368689,30.2179968 43.4290657,29.4798155 C43.7212625,28.7416341 43.8673586,27.9573283 43.8673586,27.1268743 C43.8673586,26.2964203 43.7212625,25.5198037 43.4290657,24.7970012 C43.1368689,24.0741986 42.7216481,23.4513675 42.1833909,22.928489 C41.6451337,22.4056106 41.006924,21.9903899 40.2687427,21.6828143 C39.5305614,21.3752388 38.7154984,21.2214533 37.8235293,21.2214533 C36.9315603,21.2214533 36.1164973,21.3675495 35.378316,21.6597463 C34.6401347,21.951943 34.001925,22.3671638 33.4636678,22.905421 C32.9254105,23.4436782 32.5101898,24.0741986 32.217993,24.7970012 C31.9257962,25.5198037 31.7797001,26.2964203 31.7797001,27.1268743 Z M74.0173009,37.461361 L70.3264128,37.461361 L69.7727796,32.017301 C69.0653558,33.5859363 68.0888181,34.8854235 66.8431371,35.9158016 C65.5974562,36.9461797 63.9596409,37.461361 61.9296423,37.461361 C59.8996437,37.461361 58.2925856,36.9308012 57.1084197,35.8696655 C55.9242539,34.8085299 55.3014227,33.4013928 55.2399076,31.6482122 L55.2399076,17.3921569 L59.6689733,17.3921569 L59.6689733,29.5720877 C59.7304885,30.5255719 60.0611272,31.3329456 60.6608995,31.994233 C61.2606718,32.6555204 62.221831,33.0169163 63.5444059,33.0784314 C64.436375,33.0784314 65.2514379,32.9246459 65.9896193,32.6170704 C66.7278006,32.3094948 67.3660103,31.8788955 67.9042675,31.3252595 C68.4425247,30.7716235 68.8654347,30.110346 69.1730103,29.3414072 C69.4805858,28.5724683 69.6343713,27.7420268 69.6343713,26.8500577 L69.6343713,17.3921569 L74.0173009,17.3921569 L74.0173009,37.461361 Z M85.435986,37 L81.0530563,37 L81.0530563,0.967704729 L85.435986,0.967704729 L85.435986,37 Z M91.2260666,27.4036909 C91.2260666,25.9888434 91.5028805,24.6432205 92.0565165,23.366782 C92.6101525,22.0903435 93.356012,20.9753988 94.2941174,20.0219146 C95.2322228,19.0684304 96.3240996,18.3071924 97.5697806,17.7381776 C98.8154616,17.1691629 100.130327,16.8846597 101.514417,16.8846597 C102.437144,16.8846597 103.267585,16.9999988 104.005767,17.2306805 C104.743948,17.4613622 105.382158,17.7304867 105.920415,18.0380623 C106.458672,18.3456378 106.881582,18.660898 107.189158,18.9838524 C107.496733,19.3068067 107.696654,19.5605527 107.788927,19.745098 L107.973471,17.3921569 L112.264129,17.3921569 L112.264129,37 L107.788927,37 L107.788927,35.7081892 C107.788927,35.5544014 107.796616,35.4083052 107.811995,35.2698962 C107.827374,35.1314872 107.835063,35.0315266 107.835063,34.9700115 C107.712033,35.1237993 107.496733,35.3467882 107.189158,35.638985 C106.881582,35.9311818 106.466361,36.2156849 105.943483,36.4925029 C105.420605,36.7693209 104.797773,37.0076884 104.074971,37.2076125 C103.352168,37.4075366 102.514038,37.5074971 101.560553,37.5074971 C100.053433,37.5074971 98.669364,37.2306833 97.4083042,36.6770473 C96.1472445,36.1234113 95.0553677,35.3852411 94.132641,34.4625144 C93.2099144,33.5397878 92.494812,32.4709788 91.9873123,31.2560554 C91.4798127,30.0411319 91.2260666,28.7570233 91.2260666,27.4036909 Z M95.7012685,27.1268743 C95.7012685,27.9880858 95.8473647,28.7877702 96.1395615,29.5259516 C96.4317582,30.2641329 96.846979,30.9023426 97.3852362,31.4405998 C97.9234934,31.978857 98.5617031,32.401767 99.2998844,32.7093426 C100.038066,33.0169181 100.853129,33.1707036 101.745098,33.1707036 C102.637067,33.1707036 103.45213,33.0169181 104.190311,32.7093426 C104.928492,32.401767 105.566702,31.9711677 106.104959,31.4175317 C106.643217,30.8638957 107.058437,30.2179968 107.350634,29.4798155 C107.642831,28.7416341 107.788927,27.9573283 107.788927,27.1268743 C107.788927,26.2964203 107.642831,25.5198037 107.350634,24.7970012 C107.058437,24.0741986 106.643217,23.4513675 106.104959,22.928489 C105.566702,22.4056106 104.928492,21.9903899 104.190311,21.6828143 C103.45213,21.3752388 102.637067,21.2214533 101.745098,21.2214533 C100.853129,21.2214533 100.038066,21.3675495 99.2998844,21.6597463 C98.5617031,21.951943 97.9234934,22.3671638 97.3852362,22.905421 C96.846979,23.4436782 96.4317582,24.0741986 96.1395615,24.7970012 C95.8473647,25.5198037 95.7012685,26.2964203 95.7012685,27.1268743 Z" id="paula" fill="url(#radialGradient-1)"></path>
                <path d="M1.83795285,60.0423264 C1.83795285,59.2006878 1.98964124,58.41778 2.29302258,57.6935794 C2.59640391,56.9693788 3.01721687,56.3430525 3.55547408,55.8145818 C4.09373129,55.2861111 4.72005756,54.8701913 5.43447167,54.56681 C6.14888578,54.2634286 6.91711409,54.1117402 7.73917965,54.1117402 C8.34594232,54.1117402 8.9135505,54.1949242 9.44202121,54.3612946 C9.97049193,54.527665 10.4451298,54.7576442 10.8659491,55.051239 C11.2867683,55.3448339 11.6586496,55.6824629 11.9816039,56.0641362 C12.3045582,56.4458095 12.5541101,56.8519429 12.730267,57.2825487 L12.730267,43.4836601 L13.7578438,43.4836601 L13.7578438,65.7380378 L12.730267,65.7380378 L12.730267,64.358149 C12.730267,64.0841271 12.7400533,63.8198957 12.7596263,63.5654469 C12.7791993,63.310998 12.7889857,63.0565529 12.7889857,62.8021041 C12.3779529,63.6828886 11.7320539,64.4266511 10.8512694,65.0334137 C9.97048488,65.6401764 8.92334565,65.9435532 7.70982031,65.9435532 C6.86818177,65.9435532 6.09016711,65.7869716 5.37575299,65.4738038 C4.66133888,65.160636 4.03990579,64.739823 3.51143507,64.2113523 C2.98296436,63.6828816 2.57193775,63.0614485 2.27834291,62.3470344 C1.98474807,61.6326202 1.83795285,60.8643919 1.83795285,60.0423264 Z M2.86552965,60.0423264 C2.86552965,60.727381 2.99275218,61.3683868 3.24720104,61.965363 C3.5016499,62.5623391 3.84906525,63.0810156 4.28945751,63.5214079 C4.72984978,63.9618001 5.25341939,64.3092155 5.86018206,64.5636643 C6.46694473,64.8181132 7.11284369,64.9453357 7.79789832,64.9453357 C8.48295295,64.9453357 9.12885191,64.8181132 9.73561459,64.5636643 C10.3423773,64.3092155 10.8659469,63.9618001 11.3063391,63.5214079 C11.7467314,63.0810156 12.0941467,62.5623391 12.3485956,61.965363 C12.6030445,61.3683868 12.730267,60.727381 12.730267,60.0423264 C12.730267,59.3572717 12.6030445,58.7113728 12.3485956,58.1046101 C12.0941467,57.4978474 11.7467314,56.9742778 11.3063391,56.5338856 C10.8659469,56.0934933 10.3423773,55.746078 9.73561459,55.4916291 C9.12885191,55.2371802 8.48295295,55.1099577 7.79789832,55.1099577 C7.11284369,55.1099577 6.46694473,55.2371802 5.86018206,55.4916291 C5.25341939,55.746078 4.72984978,56.0934933 4.28945751,56.5338856 C3.84906525,56.9742778 3.5016499,57.4978474 3.24720104,58.1046101 C2.99275218,58.7113728 2.86552965,59.3572717 2.86552965,60.0423264 Z M17.4597166,48.9444969 L16.9606079,48.3573101 C17.3716407,47.9658503 17.6701243,47.4765329 17.8560677,46.8893433 C18.0420111,46.3021536 18.066477,45.666041 17.929466,44.9809863 L18.7808868,44.775471 C18.9374707,45.5779635 18.8983253,46.3412987 18.6634495,47.0654993 C18.4285736,47.7896999 18.0273333,48.4160262 17.4597166,48.9444969 Z M18.4579343,60.0716857 C18.4579343,59.2496202 18.6145158,58.4764987 18.9276837,57.7522981 C19.2408515,57.0280975 19.6616644,56.396878 20.1901352,55.8586208 C20.7186059,55.3203636 21.340039,54.8946575 22.0544531,54.5814896 C22.7688672,54.2683218 23.5370955,54.1117402 24.3591611,54.1117402 C24.9463507,54.1117402 25.5041726,54.1949242 26.0326433,54.3612946 C26.561114,54.527665 27.040645,54.7576442 27.4712508,55.051239 C27.9018566,55.3448339 28.278631,55.6824629 28.6015853,56.0641362 C28.9245396,56.4458095 29.1740915,56.8519429 29.3502484,57.2825487 C29.3502484,56.7932239 29.3600348,56.3039065 29.3796077,55.8145818 C29.3991807,55.3252571 29.4285398,54.845726 29.4676858,54.3759743 L30.3484659,54.3759743 L30.3484659,65.7380378 L29.3502484,65.7380378 L29.3502484,62.8314634 C29.0175076,63.692675 28.410754,64.4266511 27.5299695,65.0334137 C26.649185,65.6401764 25.5922594,65.9435532 24.3591611,65.9435532 C23.5175225,65.9435532 22.7395079,65.7869716 22.0250937,65.4738038 C21.3106796,65.160636 20.6892465,64.739823 20.1607758,64.2113523 C19.6323051,63.6828816 19.2163853,63.0614485 18.913004,62.3470344 C18.6096227,61.6326202 18.4579343,60.8741783 18.4579343,60.0716857 Z M19.4561517,60.0423264 C19.4561517,60.727381 19.5833743,61.3683868 19.8378231,61.965363 C20.092272,62.5623391 20.4396873,63.0810156 20.8800796,63.5214079 C21.3204718,63.9618001 21.8440415,64.3092155 22.4508041,64.5636643 C23.0575668,64.8181132 23.7034658,64.9453357 24.3885204,64.9453357 C25.073575,64.9453357 25.719474,64.8181132 26.3262367,64.5636643 C26.9329993,64.3092155 27.4614621,63.9618001 27.9116409,63.5214079 C28.3618196,63.0810156 28.7141282,62.5623391 28.968577,61.965363 C29.2230259,61.3683868 29.3502484,60.727381 29.3502484,60.0423264 C29.3502484,59.3572717 29.2230259,58.7113728 28.968577,58.1046101 C28.7141282,57.4978474 28.3618196,56.9742778 27.9116409,56.5338856 C27.4614621,56.0934933 26.9329993,55.746078 26.3262367,55.4916291 C25.719474,55.2371802 25.073575,55.1099577 24.3885204,55.1099577 C23.7034658,55.1099577 23.0575668,55.2371802 22.4508041,55.4916291 C21.8440415,55.746078 21.3204718,56.0934933 20.8800796,56.5338856 C20.4396873,56.9742778 20.092272,57.4978474 19.8378231,58.1046101 C19.5833743,58.7113728 19.4561517,59.3572717 19.4561517,60.0423264 Z M34.3089805,54.3759743 L35.1310419,54.3759743 C35.1310419,54.4542662 35.1359351,54.6402068 35.1457216,54.9338017 C35.1555081,55.2273965 35.1652944,55.5405597 35.1750809,55.8733005 C35.1848674,56.2060413 35.1946538,56.5143113 35.2044403,56.7981196 C35.2142268,57.081928 35.2191199,57.253189 35.2191199,57.311908 C35.6301527,56.3724045 36.2466926,55.6090694 37.0687582,55.0218797 C37.8908237,54.43469 38.8792449,54.1410996 40.0340512,54.1410996 C41.0518467,54.1410996 41.8787931,54.4200105 42.5149153,54.9778407 C43.1510374,55.5356709 43.5180255,56.2647538 43.6158904,57.1651113 C44.0660692,56.2647538 44.6923954,55.5356709 45.494888,54.9778407 C46.2973806,54.4200105 47.2564427,54.1410996 48.372103,54.1410996 C49.4877634,54.1410996 50.3636416,54.4542627 50.9997637,55.0805984 C51.6358859,55.706934 51.9735149,56.5192009 52.0126609,57.5174234 L52.0126609,65.7380378 L50.9850841,65.7380378 L50.9850841,57.6935794 C50.9459381,57.0085248 50.7012794,56.4213439 50.2511006,55.9320192 C49.8009219,55.4426944 49.1452366,55.178463 48.284025,55.139317 C47.6576894,55.139317 47.0705085,55.2420737 46.5224648,55.4475901 C45.9744211,55.6531065 45.4899969,55.9369106 45.0691776,56.2990109 C44.6483583,56.6611112 44.3107293,57.0917105 44.0562805,57.5908217 C43.8018316,58.0899329 43.6648227,58.6428616 43.6452497,59.2496243 L43.6452497,65.7380378 L42.6470323,65.7380378 L42.6470323,57.6935794 C42.6078863,57.0085248 42.3583344,56.4213439 41.8983692,55.9320192 C41.4384039,55.4426944 40.7876118,55.178463 39.9459732,55.139317 C39.3000646,55.139317 38.6982042,55.2469669 38.140374,55.4622698 C37.5825438,55.6775726 37.0932264,55.9711631 36.6724071,56.3430499 C36.2515879,56.7149367 35.918852,57.1651087 35.6741897,57.6935794 C35.4295273,58.2220501 35.3071979,58.7896583 35.3071979,59.396421 L35.3071979,65.7380378 L34.3089805,65.7380378 L34.3089805,54.3759743 Z M67.7756291,60.0423264 C67.7756291,60.8643919 67.6239407,61.6375134 67.3205593,62.361714 C67.017178,63.0859146 66.6012582,63.7122409 66.0727875,64.2407116 C65.5443168,64.7691823 64.9179905,65.1851021 64.1937899,65.4884835 C63.4695893,65.7918648 62.6866815,65.9435532 61.8450429,65.9435532 C60.6902366,65.9435532 59.66267,65.6450696 58.7623125,65.0480934 C57.861955,64.4511172 57.2258424,63.7122479 56.8539556,62.8314634 C56.8539556,63.0859123 56.8588488,63.3354642 56.8686353,63.5801265 C56.8784218,63.8247889 56.8833149,64.0743408 56.8833149,64.3287896 L56.8833149,65.7380378 L55.8557381,65.7380378 L55.8557381,43.4836601 L56.8833149,43.4836601 L56.8833149,57.2825487 C57.0790448,56.8519429 57.338383,56.4409163 57.6613374,56.0494565 C57.9842917,55.6579967 58.3610661,55.3203677 58.7916719,55.0365594 C59.2222776,54.752751 59.7018087,54.527665 60.2302794,54.3612946 C60.7587501,54.1949242 61.3165719,54.1117402 61.9037616,54.1117402 C62.7258272,54.1117402 63.4940555,54.2634286 64.2084696,54.56681 C64.9228837,54.8701913 65.5443168,55.2861111 66.0727875,55.8145818 C66.6012582,56.3430525 67.017178,56.9693788 67.3205593,57.6935794 C67.6239407,58.41778 67.7756291,59.2006878 67.7756291,60.0423264 Z M66.6893336,60.0423264 C66.6893336,59.3572717 66.5670042,58.7113728 66.3223419,58.1046101 C66.0776795,57.4978474 65.7351573,56.9742778 65.2947651,56.5338856 C64.8543728,56.0934933 64.3405895,55.746078 63.7533999,55.4916291 C63.1662102,55.2371802 62.5203112,55.1099577 61.8156836,55.1099577 C61.130629,55.1099577 60.48473,55.2371802 59.8779673,55.4916291 C59.2712047,55.746078 58.7476351,56.0934933 58.3072428,56.5338856 C57.8668505,56.9742778 57.5194352,57.4978474 57.2649863,58.1046101 C57.0105375,58.7113728 56.8833149,59.3572717 56.8833149,60.0423264 C56.8833149,60.727381 57.0105375,61.3683868 57.2649863,61.965363 C57.5194352,62.5623391 57.8668505,63.0810156 58.3072428,63.5214079 C58.7476351,63.9618001 59.2712047,64.3092155 59.8779673,64.5636643 C60.48473,64.8181132 61.130629,64.9453357 61.8156836,64.9453357 C62.5203112,64.9453357 63.1662102,64.8181132 63.7533999,64.5636643 C64.3405895,64.3092155 64.8543728,63.9618001 65.2947651,63.5214079 C65.7351573,63.0810156 66.0776795,62.5623391 66.3223419,61.965363 C66.5670042,61.3683868 66.6893336,60.727381 66.6893336,60.0423264 Z M76.4923563,55.3448324 C75.8855936,55.3644054 75.3033059,55.4720552 74.7454757,55.6677851 C74.1876456,55.863515 73.693435,56.1424259 73.2628292,56.5045262 C72.8322234,56.8666265 72.4897013,57.2972258 72.2352524,57.7963371 C71.9808035,58.2954483 71.853581,58.848377 71.853581,59.4551396 L71.853581,65.7380378 L70.8553636,65.7380378 L70.8553636,54.3759743 L71.7067843,54.3759743 C71.7067843,54.4542662 71.7116775,54.6402068 71.721464,54.9338017 C71.7312505,55.2273965 71.7361437,55.5405597 71.7361437,55.8733005 C71.7361437,56.2060413 71.7410368,56.5143113 71.7508233,56.7981196 C71.7606098,57.081928 71.765503,57.253189 71.765503,57.311908 C72.2156818,56.3332585 72.8958329,55.5650302 73.805977,55.0072 C74.716121,54.4493698 75.6702899,54.1606726 76.6685123,54.1410996 L76.4923563,55.3448324 Z M77.1506445,60.0423264 C77.1506445,59.2202608 77.3072261,58.4471393 77.6203939,57.7229387 C77.9335617,56.9987381 78.3592679,56.3675187 78.8975251,55.8292615 C79.4357823,55.2910043 80.0670017,54.8652981 80.7912023,54.5521303 C81.5154029,54.2389625 82.2885244,54.0823809 83.11059,54.0823809 C83.9326555,54.0823809 84.705777,54.2389625 85.4299776,54.5521303 C86.1541782,54.8652981 86.7853977,55.2910043 87.3236549,55.8292615 C87.8619121,56.3675187 88.2876182,56.9987381 88.600786,57.7229387 C88.9139539,58.4471393 89.0705354,59.2202608 89.0705354,60.0423264 C89.0705354,60.8643919 88.9139539,61.6326202 88.600786,62.3470344 C88.2876182,63.0614485 87.8619121,63.6828816 87.3236549,64.2113523 C86.7853977,64.739823 86.1541782,65.160636 85.4299776,65.4738038 C84.705777,65.7869716 83.9228692,65.9435532 83.0812306,65.9435532 C82.2591651,65.9435532 81.4860436,65.7918648 80.761843,65.4884835 C80.0376424,65.1851021 79.4113161,64.7691823 78.8828454,64.2407116 C78.3543747,63.7122409 77.9335617,63.0908078 77.6203939,62.3763937 C77.3072261,61.6619796 77.1506445,60.8839649 77.1506445,60.0423264 Z M78.1782213,60.0423264 C78.1782213,60.727381 78.3054438,61.3683868 78.5598927,61.965363 C78.8143415,62.5623391 79.1617569,63.0810156 79.6021492,63.5214079 C80.0425414,63.9618001 80.5612179,64.3092155 81.158194,64.5636643 C81.7551702,64.8181132 82.396176,64.9453357 83.0812306,64.9453357 C83.7662853,64.9453357 84.407291,64.8181132 85.0042672,64.5636643 C85.6012434,64.3092155 86.124813,63.9618001 86.5749918,63.5214079 C87.0251705,63.0810156 87.3774791,62.5623391 87.6319279,61.965363 C87.8863768,61.3683868 88.0135993,60.727381 88.0135993,60.0423264 C88.0135993,59.3572717 87.8863768,58.716266 87.6319279,58.1192898 C87.3774791,57.5223136 87.0251705,56.998744 86.5749918,56.5485652 C86.124813,56.0983865 85.6012434,55.746078 85.0042672,55.4916291 C84.407291,55.2371802 83.7662853,55.1099577 83.0812306,55.1099577 C82.396176,55.1099577 81.7551702,55.2371802 81.158194,55.4916291 C80.5612179,55.746078 80.0425414,56.0983865 79.6021492,56.5485652 C79.1617569,56.998744 78.8143415,57.5223136 78.5598927,58.1192898 C78.3054438,58.716266 78.1782213,59.3572717 78.1782213,60.0423264 Z M97.8459814,55.4916291 L97.2587946,56.1962532 C97.0239187,55.9026583 96.6618239,55.6628928 96.1724991,55.4769494 C95.6831744,55.291006 95.223216,55.1980357 94.7926103,55.1980357 C94.5577344,55.1980357 94.3081825,55.2322879 94.0439472,55.3007934 C93.7797118,55.3692989 93.5399463,55.4818419 93.3246434,55.6384258 C93.1093405,55.7950097 92.9282931,55.9956298 92.7814957,56.2402922 C92.6346983,56.4849546 92.5613006,56.7834382 92.5613006,57.135752 C92.5613006,57.6250767 92.7032027,58.0165306 92.987011,58.3101255 C93.2708194,58.6037203 93.6231279,58.8532722 94.0439472,59.0587886 C94.4647665,59.264305 94.9247248,59.4502456 95.423836,59.616616 C95.9229473,59.7829864 96.3829056,59.9836065 96.8037249,60.2184824 C97.2245442,60.4533583 97.5768527,60.7616282 97.860661,61.1433015 C98.1444694,61.5249748 98.2863714,62.0191854 98.2863714,62.6259481 C98.2863714,63.0761268 98.2080806,63.501833 98.0514967,63.9030792 C97.8949128,64.3043255 97.6600405,64.6615272 97.3468726,64.974695 C97.0337048,65.2878629 96.6569304,65.5325216 96.2165381,65.7086785 C95.7761459,65.8848354 95.2623626,65.9729125 94.6751729,65.9729125 C94.0684103,65.9729125 93.4322976,65.8652627 92.766816,65.6499598 C92.1013344,65.4346569 91.5532989,65.072562 91.1226931,64.5636643 C91.2401311,64.4462264 91.3722467,64.3043243 91.5190442,64.1379539 C91.6658416,63.9715835 91.7588119,63.8688269 91.7979579,63.8296809 C91.8958228,63.9666918 92.0524044,64.1037007 92.2677073,64.2407116 C92.4830102,64.3777225 92.732562,64.5000519 93.0163704,64.6077033 C93.3001787,64.7153548 93.588876,64.8034319 93.8824708,64.8719374 C94.1760657,64.9404428 94.4500834,64.974695 94.7045323,64.974695 C94.9394081,64.974695 95.2036395,64.9355497 95.4972344,64.8572577 C95.7908292,64.7789657 96.0697401,64.6517432 96.3339755,64.4755863 C96.5982108,64.2994294 96.8232968,64.0645571 97.0092402,63.7709622 C97.1951836,63.4773674 97.288154,63.1250589 97.288154,62.7140261 C97.288154,62.2051283 97.1462519,61.7989949 96.8624436,61.4956136 C96.5786352,61.1922322 96.2214335,60.9426804 95.7908277,60.7469505 C95.360222,60.5512206 94.9002636,60.3750663 94.4109389,60.2184824 C93.9216142,60.0618985 93.4616558,59.8612784 93.03105,59.616616 C92.6004443,59.3719536 92.2432426,59.0587905 91.9594342,58.6771172 C91.6756259,58.2954439 91.5337238,57.791447 91.5337238,57.1651113 C91.5337238,56.6562136 91.6315873,56.2158279 91.8273172,55.8439411 C92.0230471,55.4720543 92.272599,55.1637844 92.5759803,54.919122 C92.8793616,54.6744596 93.2218838,54.4934122 93.6035571,54.3759743 C93.9852304,54.2585363 94.3717912,54.1998183 94.7632509,54.1998183 C95.2330027,54.1998183 95.7565723,54.2976817 96.3339755,54.4934116 C96.9113787,54.6891415 97.4153756,55.0218773 97.8459814,55.4916291 Z M100.397248,60.0716857 C100.397248,59.2496202 100.553829,58.4764987 100.866997,57.7522981 C101.180165,57.0280975 101.600978,56.396878 102.129449,55.8586208 C102.657919,55.3203636 103.279352,54.8946575 103.993767,54.5814896 C104.708181,54.2683218 105.476409,54.1117402 106.298475,54.1117402 C106.885664,54.1117402 107.443486,54.1949242 107.971957,54.3612946 C108.500428,54.527665 108.979959,54.7576442 109.410564,55.051239 C109.84117,55.3448339 110.217944,55.6824629 110.540899,56.0641362 C110.863853,56.4458095 111.113405,56.8519429 111.289562,57.2825487 C111.289562,56.7932239 111.299348,56.3039065 111.318921,55.8145818 C111.338494,55.3252571 111.367853,54.845726 111.406999,54.3759743 L112.287779,54.3759743 L112.287779,65.7380378 L111.289562,65.7380378 L111.289562,62.8314634 C110.956821,63.692675 110.350068,64.4266511 109.469283,65.0334137 C108.588498,65.6401764 107.531573,65.9435532 106.298475,65.9435532 C105.456836,65.9435532 104.678821,65.7869716 103.964407,65.4738038 C103.249993,65.160636 102.62856,64.739823 102.100089,64.2113523 C101.571619,63.6828816 101.155699,63.0614485 100.852317,62.3470344 C100.548936,61.6326202 100.397248,60.8741783 100.397248,60.0716857 Z M101.395465,60.0423264 C101.395465,60.727381 101.522688,61.3683868 101.777137,61.965363 C102.031585,62.5623391 102.379001,63.0810156 102.819393,63.5214079 C103.259785,63.9618001 103.783355,64.3092155 104.390118,64.5636643 C104.99688,64.8181132 105.642779,64.9453357 106.327834,64.9453357 C107.012889,64.9453357 107.658787,64.8181132 108.26555,64.5636643 C108.872313,64.3092155 109.400776,63.9618001 109.850954,63.5214079 C110.301133,63.0810156 110.653442,62.5623391 110.907891,61.965363 C111.162339,61.3683868 111.289562,60.727381 111.289562,60.0423264 C111.289562,59.3572717 111.162339,58.7113728 110.907891,58.1046101 C110.653442,57.4978474 110.301133,56.9742778 109.850954,56.5338856 C109.400776,56.0934933 108.872313,55.746078 108.26555,55.4916291 C107.658787,55.2371802 107.012889,55.1099577 106.327834,55.1099577 C105.642779,55.1099577 104.99688,55.2371802 104.390118,55.4916291 C103.783355,55.746078 103.259785,56.0934933 102.819393,56.5338856 C102.379001,56.9742778 102.031585,57.4978474 101.777137,58.1046101 C101.522688,58.7113728 101.395465,59.3572717 101.395465,60.0423264 Z" id="d’ambrosa" fill="#687C99"></path>
            </g>
        </g>
    </g>
</svg>